<?xml version="1.0" encoding="UTF-8"?>
<svg width="577px" height="292px" viewBox="0 0 577 292" version="1.1" xmlns="http://www.w3.org/2000/svg" xmlns:xlink="http://www.w3.org/1999/xlink">
    <title>SVG Layer</title>
    <g id="Page-1" stroke="none" stroke-width="1" fill="none" fill-rule="evenodd">
        <g id="SVG-Layer" transform="translate(1.000000, 1.085000)" fill-rule="nonzero">
            <g id="Group">
                <g id="d1pwhf9wy2-link" fill="#F6C700">
                    <path d="M575,24.91 C573.44,12.15 563.97,1.98 551.91,0 C499.05,0 76.18,0 23.32,0 C10.11,2.17 0,14.16 0,28.61 C0,51.84 0,237.64 0,260.86 C0,276.86 12.37,289.83 27.64,289.83 C79.63,289.83 495.6,289.83 547.59,289.83 C561.65,289.83 573.26,278.82 575,264.57 C575,216.64 575,48.87 575,24.91 Z" id="d1pwhf9wy2"></path>
                </g>
                <g id="d1pwhf9wy2-link" fill="#000000" fill-opacity="0" stroke="#000000" stroke-opacity="0">
                    <path d="M575,24.91 C573.44,12.15 563.97,1.98 551.91,0 C499.05,0 76.18,0 23.32,0 C10.11,2.17 0,14.16 0,28.61 C0,51.84 0,237.64 0,260.86 C0,276.86 12.37,289.83 27.64,289.83 C79.63,289.83 495.6,289.83 547.59,289.83 C561.65,289.83 573.26,278.82 575,264.57 C575,216.64 575,48.87 575,24.91 Z" id="d1pwhf9wy2"></path>
                </g>
            </g>
            <g id="Group" transform="translate(69.350000, 58.240000)" fill="#000000">
                <g id="g5jjnq26yS-link">
                    <polygon id="g5jjnq26yS" points="0 -7.10542736e-15 45.63 -7.10542736e-15 45.63 175.65 0 175.65"></polygon>
                </g>
                <g id="g5jjnq26yS-link" fill-opacity="0" stroke="#000000" stroke-opacity="0">
                    <polygon id="g5jjnq26yS" points="0 -7.10542736e-15 45.63 -7.10542736e-15 45.63 175.65 0 175.65"></polygon>
                </g>
            </g>
            <g id="Group" transform="translate(130.040000, 57.090000)" fill="#000000">
                <g id="i3Prh1JpXt-link">
                    <path d="M71.16,82.06 C67.24,55.29 65.06,40.41 64.63,37.44 C62.72,23.11 60.9,10.64 59.16,-2.84217094e-14 C55.21,-2.84217094e-14 35.5,-2.84217094e-14 2.84217094e-14,-2.84217094e-14 L2.84217094e-14,175.65 L39.97,175.65 L40.11,59.67 L56.93,175.65 L85.4,175.65 L101.35,57.09 L101.5,175.65 L141.34,175.65 L141.34,-2.84217094e-14 L81.73,-2.84217094e-14 L71.16,82.06 Z" id="i3Prh1JpXt"></path>
                </g>
                <g id="i3Prh1JpXt-link" fill-opacity="0" stroke="#000000" stroke-opacity="0">
                    <path d="M71.16,82.06 C67.24,55.29 65.06,40.41 64.63,37.44 C62.72,23.11 60.9,10.64 59.16,-2.84217094e-14 C55.21,-2.84217094e-14 35.5,-2.84217094e-14 2.84217094e-14,-2.84217094e-14 L2.84217094e-14,175.65 L39.97,175.65 L40.11,59.67 L56.93,175.65 L85.4,175.65 L101.35,57.09 L101.5,175.65 L141.34,175.65 L141.34,-2.84217094e-14 L81.73,-2.84217094e-14 L71.16,82.06 Z" id="i3Prh1JpXt"></path>
                </g>
            </g>
            <g id="Group" transform="translate(287.500000, 57.090000)" fill="#000000">
                <g id="a4ov9rRGQm-link">
                    <path d="M59.21,36.54 C59.71,38.78 59.97,43.86 59.97,51.8 C59.97,58.61 59.97,113.09 59.97,119.9 C59.97,131.59 59.21,138.75 57.7,141.39 C56.18,144.03 52.14,145.34 45.59,145.34 C45.59,133.81 45.59,41.57 45.59,30.04 C50.56,30.04 53.95,30.57 55.75,31.61 C57.55,32.66 58.71,34.3 59.21,36.54 Z M79.82,173.86 C85.25,172.67 89.81,170.57 93.51,167.58 C97.2,164.58 99.79,160.43 101.27,155.12 C102.76,149.82 103.64,139.29 103.64,123.54 C103.64,117.38 103.64,68.03 103.64,61.86 C103.64,45.24 102.99,34.1 101.98,28.44 C100.96,22.77 98.43,17.62 94.38,13 C90.32,8.38 84.4,5.06 76.62,3.04 C68.83,1.02 56.13,-2.84217094e-14 34.04,-2.84217094e-14 C31.77,-2.84217094e-14 20.43,-2.84217094e-14 0,-2.84217094e-14 L0,175.65 L55.28,175.65 C68.02,175.25 76.2,174.66 79.82,173.86 Z" id="a4ov9rRGQm"></path>
                </g>
                <g id="a4ov9rRGQm-link" fill-opacity="0" stroke="#000000" stroke-opacity="0">
                    <path d="M59.21,36.54 C59.71,38.78 59.97,43.86 59.97,51.8 C59.97,58.61 59.97,113.09 59.97,119.9 C59.97,131.59 59.21,138.75 57.7,141.39 C56.18,144.03 52.14,145.34 45.59,145.34 C45.59,133.81 45.59,41.57 45.59,30.04 C50.56,30.04 53.95,30.57 55.75,31.61 C57.55,32.66 58.71,34.3 59.21,36.54 Z M79.82,173.86 C85.25,172.67 89.81,170.57 93.51,167.58 C97.2,164.58 99.79,160.43 101.27,155.12 C102.76,149.82 103.64,139.29 103.64,123.54 C103.64,117.38 103.64,68.03 103.64,61.86 C103.64,45.24 102.99,34.1 101.98,28.44 C100.96,22.77 98.43,17.62 94.38,13 C90.32,8.38 84.4,5.06 76.62,3.04 C68.83,1.02 56.13,-2.84217094e-14 34.04,-2.84217094e-14 C31.77,-2.84217094e-14 20.43,-2.84217094e-14 0,-2.84217094e-14 L0,175.65 L55.28,175.65 C68.02,175.25 76.2,174.66 79.82,173.86 Z" id="a4ov9rRGQm"></path>
                </g>
            </g>
            <g id="Group" transform="translate(406.680000, 55.560000)" fill="#000000">
                <g id="fk968BpsX-link">
                    <path d="M58.08,149.14 C57.24,151.37 53.56,152.5 50.78,152.5 C48.06,152.5 46.25,151.42 45.33,149.25 C44.41,147.09 43.96,142.16 43.96,134.44 C43.96,129.8 43.96,92.66 43.96,88.02 C43.96,80.02 44.36,75.03 45.17,73.04 C45.97,71.07 47.73,70.07 50.45,70.07 C53.23,70.07 56.96,71.2 57.92,73.47 C58.87,75.74 59.35,80.59 59.35,88.02 C59.35,91.02 59.35,106.02 59.35,133.03 C59.06,142.28 58.64,147.65 58.08,149.14 Z M0,175.65 L41.08,175.65 C42.79,168.94 43.73,165.21 43.92,164.46 C47.64,168.96 51.73,172.34 56.22,174.58 C60.69,176.83 67.38,177.95 72.56,177.95 C79.77,177.95 85.99,176.06 91.24,172.27 C96.48,168.49 99.82,164.01 101.24,158.86 C102.66,153.7 103.37,145.86 103.37,135.32 C103.37,130.39 103.37,90.97 103.37,86.04 C103.37,75.44 103.13,68.52 102.66,65.27 C102.19,62.02 100.79,58.71 98.46,55.32 C96.13,51.93 92.74,49.3 88.3,47.42 C83.86,45.54 78.62,44.6 72.58,44.6 C67.33,44.6 60.61,45.65 56.13,47.72 C51.66,49.79 47.6,52.93 43.96,57.14 C43.96,53.33 43.96,34.29 43.96,0 L0,0 L0,175.65 Z" id="fk968BpsX"></path>
                </g>
                <g id="fk968BpsX-link" fill-opacity="0" stroke="#000000" stroke-opacity="0">
                    <path d="M58.08,149.14 C57.24,151.37 53.56,152.5 50.78,152.5 C48.06,152.5 46.25,151.42 45.33,149.25 C44.41,147.09 43.96,142.16 43.96,134.44 C43.96,129.8 43.96,92.66 43.96,88.02 C43.96,80.02 44.36,75.03 45.17,73.04 C45.97,71.07 47.73,70.07 50.45,70.07 C53.23,70.07 56.96,71.2 57.92,73.47 C58.87,75.74 59.35,80.59 59.35,88.02 C59.35,91.02 59.35,106.02 59.35,133.03 C59.06,142.28 58.64,147.65 58.08,149.14 Z M0,175.65 L41.08,175.65 C42.79,168.94 43.73,165.21 43.92,164.46 C47.64,168.96 51.73,172.34 56.22,174.58 C60.69,176.83 67.38,177.95 72.56,177.95 C79.77,177.95 85.99,176.06 91.24,172.27 C96.48,168.49 99.82,164.01 101.24,158.86 C102.66,153.7 103.37,145.86 103.37,135.32 C103.37,130.39 103.37,90.97 103.37,86.04 C103.37,75.44 103.13,68.52 102.66,65.27 C102.19,62.02 100.79,58.71 98.46,55.32 C96.13,51.93 92.74,49.3 88.3,47.42 C83.86,45.54 78.62,44.6 72.58,44.6 C67.33,44.6 60.61,45.65 56.13,47.72 C51.66,49.79 47.6,52.93 43.96,57.14 C43.96,53.33 43.96,34.29 43.96,0 L0,0 L0,175.65 Z" id="fk968BpsX"></path>
                </g>
            </g>
        </g>
    </g>
</svg>