<?xml version="1.0" encoding="UTF-8"?>
<svg width="145px" height="129px" viewBox="0 0 145 129" version="1.1" xmlns="http://www.w3.org/2000/svg" xmlns:xlink="http://www.w3.org/1999/xlink">
    <title>dimaggio</title>
    <g id="Page-1" stroke="none" stroke-width="1" fill="none" fill-rule="evenodd">
        <g id="dimaggio" transform="translate(0.892875, 0.000000)" fill="#FF0061" fill-rule="nonzero">
            <path d="M72.107125,0 C98.0645082,0 119.107125,21.0426168 119.107125,47 C119.107125,72.9573832 98.0645082,94 72.107125,94 C46.1497418,94 25.107125,72.9573832 25.107125,47 C25.107125,21.0426168 46.1497418,0 72.107125,0 Z M74.607125,25 L56.7671249,25 C55.2980475,25 54.107125,26.1909225 54.107125,27.6599999 L54.107125,27.6599999 L54.107125,67.3400001 C54.107125,68.8090775 55.2980475,70 56.7671249,70 L56.7671249,70 L74.607125,70 C85.9289624,70 95.107125,60.8218374 95.107125,49.5 L95.107125,49.5 L95.107125,45.5 C95.107125,34.1781626 85.9289624,25 74.607125,25 L74.607125,25 Z" id="Combined-Shape"></path>
            <g id="Dylan-DiMaggio" transform="translate(0.000000, 110.097656)">
                <path d="M0,0.810546875 L0,14.9023438 L5.4296875,14.9023438 C9.65820312,14.9023438 12.1484375,12.2753906 12.1484375,7.80273438 C12.1484375,3.33007812 9.65820312,0.810546875 5.4296875,0.810546875 L0,0.810546875 Z M2.94921875,3.2421875 L5.078125,3.2421875 C7.67578125,3.2421875 9.140625,4.86328125 9.140625,7.8125 C9.140625,10.859375 7.71484375,12.4609375 5.078125,12.4609375 L2.94921875,12.4609375 L2.94921875,3.2421875 Z" id="Shape"></path>
                <path d="M15.2050781,18.828125 C17.890625,18.828125 19.2089844,17.8613281 20.1269531,15.1171875 L23.8476562,4.15039062 L20.8398438,4.15039062 L18.5058594,12.5878906 L18.4472656,12.5878906 L16.1230469,4.15039062 L12.9980469,4.15039062 L16.7675781,14.9707031 L16.6699219,15.3808594 C16.4453125,16.2402344 15.8300781,16.6113281 14.765625,16.6113281 C14.6484375,16.6113281 14.21875,16.6015625 14.1210938,16.5820312 L14.1210938,18.7890625 C14.2285156,18.8085938 15.0976562,18.828125 15.2050781,18.828125 Z" id="Path"></path>
                <polygon id="Path" points="25.0097656 14.9023438 27.8613281 14.9023438 27.8613281 0.13671875 25.0097656 0.13671875"></polygon>
                <path d="M33.9746094,12.9492188 C32.9394531,12.9492188 32.265625,12.4511719 32.265625,11.6601562 C32.265625,10.8691406 32.9003906,10.4003906 34.0917969,10.3222656 L36.3476562,10.1660156 L36.3476562,10.9570312 C36.3476562,12.1289062 35.2929688,12.9492188 33.9746094,12.9492188 Z M33.046875,15.0292969 C34.4238281,15.0292969 35.7519531,14.3652344 36.3378906,13.2421875 L36.3964844,13.2421875 L36.3964844,14.9023438 L39.1503906,14.9023438 L39.1503906,7.52929688 C39.1503906,5.38085938 37.34375,3.96484375 34.5800781,3.96484375 C31.8945312,3.96484375 30.0390625,5.38085938 29.9609375,7.43164062 L32.5683594,7.43164062 C32.7050781,6.65039062 33.4277344,6.10351562 34.4628906,6.10351562 C35.6347656,6.10351562 36.3476562,6.66992188 36.3476562,7.70507812 L36.3476562,8.41796875 L33.6621094,8.58398438 C30.9179688,8.75 29.4238281,9.85351562 29.4238281,11.8066406 C29.4238281,13.7304688 30.9765625,15.0292969 33.046875,15.0292969 Z" id="Shape"></path>
                <path d="M41.0644531,14.9023438 L43.9160156,14.9023438 L43.9160156,8.76953125 C43.9160156,7.34375 44.7363281,6.3671875 46.1035156,6.3671875 C47.4511719,6.3671875 48.1152344,7.17773438 48.1152344,8.60351562 L48.1152344,14.9023438 L50.9667969,14.9023438 L50.9667969,8.0078125 C50.9667969,5.49804688 49.6191406,3.99414062 47.2363281,3.99414062 C45.5859375,3.99414062 44.4921875,4.71679688 43.8769531,6.07421875 L43.8183594,6.07421875 L43.8183594,4.15039062 L41.0644531,4.15039062 L41.0644531,14.9023438 Z" id="Path"></path>
                <path d="M57.3535156,0.810546875 L57.3535156,14.9023438 L62.7832031,14.9023438 C67.0117188,14.9023438 69.5019531,12.2753906 69.5019531,7.80273438 C69.5019531,3.33007812 67.0117188,0.810546875 62.7832031,0.810546875 L57.3535156,0.810546875 Z M60.3027344,3.2421875 L62.4316406,3.2421875 C65.0292969,3.2421875 66.4941406,4.86328125 66.4941406,7.8125 C66.4941406,10.859375 65.0683594,12.4609375 62.4316406,12.4609375 L60.3027344,12.4609375 L60.3027344,3.2421875 Z" id="Shape"></path>
                <path d="M71.2402344,14.9023438 L74.0917969,14.9023438 L74.0917969,4.15039062 L71.2402344,4.15039062 L71.2402344,14.9023438 Z M72.6660156,2.97851562 C73.515625,2.97851562 74.2089844,2.33398438 74.2089844,1.484375 C74.2089844,0.634765625 73.515625,0 72.6660156,0 C71.8261719,0 71.1328125,0.634765625 71.1328125,1.484375 C71.1328125,2.33398438 71.8261719,2.97851562 72.6660156,2.97851562 Z" id="Shape"></path>
                <polygon id="Path" points="91.2011719 0.810546875 87.7832031 0.810546875 83.7792969 10.8007812 83.7011719 10.8007812 79.6972656 0.810546875 76.2792969 0.810546875 76.2792969 14.9023438 78.90625 14.9023438 78.90625 5.390625 78.984375 5.390625 82.8125 14.765625 84.6679688 14.765625 88.4960938 5.390625 88.5742188 5.390625 88.5742188 14.9023438 91.2011719 14.9023438"></polygon>
                <path d="M97.4511719,12.9492188 C96.4160156,12.9492188 95.7421875,12.4511719 95.7421875,11.6601562 C95.7421875,10.8691406 96.3769531,10.4003906 97.5683594,10.3222656 L99.8242188,10.1660156 L99.8242188,10.9570312 C99.8242188,12.1289062 98.7695312,12.9492188 97.4511719,12.9492188 Z M96.5234375,15.0292969 C97.9003906,15.0292969 99.2285156,14.3652344 99.8144531,13.2421875 L99.8730469,13.2421875 L99.8730469,14.9023438 L102.626953,14.9023438 L102.626953,7.52929688 C102.626953,5.38085938 100.820312,3.96484375 98.0566406,3.96484375 C95.3710938,3.96484375 93.515625,5.38085938 93.4375,7.43164062 L96.0449219,7.43164062 C96.1816406,6.65039062 96.9042969,6.10351562 97.9394531,6.10351562 C99.1113281,6.10351562 99.8242188,6.66992188 99.8242188,7.70507812 L99.8242188,8.41796875 L97.1386719,8.58398438 C94.3945312,8.75 92.9003906,9.85351562 92.9003906,11.8066406 C92.9003906,13.7304688 94.453125,15.0292969 96.5234375,15.0292969 Z" id="Shape"></path>
                <path d="M109.472656,12.6269531 C107.988281,12.6269531 107.060547,11.4550781 107.060547,9.50195312 C107.060547,7.55859375 107.998047,6.328125 109.472656,6.328125 C110.957031,6.328125 111.914062,7.578125 111.914062,9.51171875 C111.914062,11.4355469 110.957031,12.6269531 109.472656,12.6269531 Z M109.443359,18.8378906 C112.675781,18.8378906 114.755859,17.2167969 114.755859,14.6582031 L114.755859,4.15039062 L111.943359,4.15039062 L111.943359,5.98632812 L111.894531,5.98632812 C111.328125,4.79492188 110.107422,4.0234375 108.564453,4.0234375 C105.839844,4.0234375 104.140625,6.12304688 104.140625,9.4921875 C104.140625,12.8027344 105.898438,14.8339844 108.515625,14.8339844 C110.068359,14.8339844 111.328125,14.1015625 111.845703,12.9492188 L111.904297,12.9492188 L111.904297,14.8730469 C111.904297,16.0839844 110.957031,16.8261719 109.511719,16.8261719 C108.388672,16.8261719 107.490234,16.3769531 107.304688,15.6640625 L104.492188,15.6640625 C104.638672,17.5976562 106.621094,18.8378906 109.443359,18.8378906 Z" id="Shape"></path>
                <path d="M121.621094,12.6269531 C120.136719,12.6269531 119.208984,11.4550781 119.208984,9.50195312 C119.208984,7.55859375 120.146484,6.328125 121.621094,6.328125 C123.105469,6.328125 124.0625,7.578125 124.0625,9.51171875 C124.0625,11.4355469 123.105469,12.6269531 121.621094,12.6269531 Z M121.591797,18.8378906 C124.824219,18.8378906 126.904297,17.2167969 126.904297,14.6582031 L126.904297,4.15039062 L124.091797,4.15039062 L124.091797,5.98632812 L124.042969,5.98632812 C123.476562,4.79492188 122.255859,4.0234375 120.712891,4.0234375 C117.988281,4.0234375 116.289062,6.12304688 116.289062,9.4921875 C116.289062,12.8027344 118.046875,14.8339844 120.664062,14.8339844 C122.216797,14.8339844 123.476562,14.1015625 123.994141,12.9492188 L124.052734,12.9492188 L124.052734,14.8730469 C124.052734,16.0839844 123.105469,16.8261719 121.660156,16.8261719 C120.537109,16.8261719 119.638672,16.3769531 119.453125,15.6640625 L116.640625,15.6640625 C116.787109,17.5976562 118.769531,18.8378906 121.591797,18.8378906 Z" id="Shape"></path>
                <path d="M128.886719,14.9023438 L131.738281,14.9023438 L131.738281,4.15039062 L128.886719,4.15039062 L128.886719,14.9023438 Z M130.3125,2.97851562 C131.162109,2.97851562 131.855469,2.33398438 131.855469,1.484375 C131.855469,0.634765625 131.162109,0 130.3125,0 C129.472656,0 128.779297,0.634765625 128.779297,1.484375 C128.779297,2.33398438 129.472656,2.97851562 130.3125,2.97851562 Z" id="Shape"></path>
                <path d="M138.623047,15.0878906 C141.884766,15.0878906 143.925781,13.0078125 143.925781,9.52148438 C143.925781,6.07421875 141.865234,3.96484375 138.623047,3.96484375 C135.390625,3.96484375 133.320312,6.08398438 133.320312,9.52148438 C133.320312,12.9980469 135.361328,15.0878906 138.623047,15.0878906 Z M138.623047,12.890625 C137.119141,12.890625 136.210938,11.6601562 136.210938,9.52148438 C136.210938,7.41210938 137.119141,6.15234375 138.623047,6.15234375 C140.117188,6.15234375 141.025391,7.40234375 141.025391,9.52148438 C141.025391,11.6601562 140.126953,12.890625 138.623047,12.890625 Z" id="Shape"></path>
            </g>
        </g>
    </g>
</svg>