<?xml version="1.0" encoding="UTF-8"?>
<svg width="98px" height="130px" viewBox="0 0 98 130" version="1.1" xmlns="http://www.w3.org/2000/svg" xmlns:xlink="http://www.w3.org/1999/xlink">
    <title>Group 2</title>
    <g id="Page-1" stroke="none" stroke-width="1" fill="none" fill-rule="evenodd">
        <g id="screenshot.png-copy" transform="translate(-251.000000, -160.000000)" fill="#FF0061">
            <g id="Group-2" transform="translate(251.721000, 160.000000)">
                <path d="M48.279,0 C74.2363832,0 95.279,21.0426168 95.279,47 C95.279,72.9573832 74.2363832,94 48.279,94 C22.3216168,94 1.279,72.9573832 1.279,47 C1.279,21.0426168 22.3216168,0 48.279,0 Z M50.779,25 L32.9389999,25 C31.4699225,25 30.279,26.1909225 30.279,27.6599999 L30.279,27.6599999 L30.279,67.3400001 C30.279,68.8090775 31.4699225,70 32.9389999,70 L32.9389999,70 L50.779,70 C62.1008374,70 71.279,60.8218374 71.279,49.5 L71.279,49.5 L71.279,45.5 C71.279,34.1781626 62.1008374,25 50.779,25 L50.779,25 Z" id="Combined-Shape"></path>
                <path d="M6.16,125 C10.406,125 13.64,121.656 13.64,117.3 C13.64,112.944 10.406,109.6 6.16,109.6 L0,109.6 L0,125 L6.16,125 Z M6.16,121.612 L3.52,121.612 L3.52,112.988 L6.16,112.988 C8.58,112.988 10.252,114.66 10.252,117.3 C10.252,119.94 8.58,121.612 6.16,121.612 Z M17.16,113.032 C18.238,113.032 19.14,112.13 19.14,111.052 C19.14,109.974 18.238,109.072 17.16,109.072 C16.082,109.072 15.18,109.974 15.18,111.052 C15.18,112.13 16.082,113.032 17.16,113.032 Z M18.81,125 L18.81,114 L15.51,114 L15.51,125 L18.81,125 Z M24.86,125 L24.86,116.046 L28.842,122.58 L29.238,122.58 L33.22,116.046 L33.22,125 L36.74,125 L36.74,109.6 L33.22,109.6 L29.04,116.442 L24.86,109.6 L21.34,109.6 L21.34,125 L24.86,125 Z M43.978,125.308 C45.452,125.308 46.53,124.802 47.256,123.966 L47.256,125 L50.556,125 L50.556,114 L47.256,114 L47.256,115.034 C46.53,114.198 45.452,113.692 43.978,113.692 C41.096,113.692 38.72,116.222 38.72,119.5 C38.72,122.778 41.096,125.308 43.978,125.308 Z M44.638,122.184 C43.12,122.184 42.02,121.15 42.02,119.5 C42.02,117.85 43.12,116.816 44.638,116.816 C46.156,116.816 47.256,117.85 47.256,119.5 C47.256,121.15 46.156,122.184 44.638,122.184 Z M58.454,129.708 C61.38,129.708 64.262,128.146 64.262,124.45 L64.262,114 L61.05,114 L61.05,115.122 C60.324,114.22 59.268,113.692 57.838,113.692 C54.714,113.692 52.426,116.244 52.426,119.28 C52.426,122.316 54.714,124.868 57.838,124.868 C59.268,124.868 60.324,124.34 61.05,123.438 L61.05,124.45 C61.05,126.012 60.104,126.804 58.564,126.804 C57.112,126.804 56.474,126.188 56.056,125.418 L53.24,127.046 C54.252,128.85 56.166,129.708 58.454,129.708 Z M58.388,121.832 C56.826,121.832 55.726,120.798 55.726,119.28 C55.726,117.762 56.826,116.728 58.388,116.728 C59.95,116.728 61.05,117.762 61.05,119.28 C61.05,120.798 59.95,121.832 58.388,121.832 Z M72.16,129.708 C75.086,129.708 77.968,128.146 77.968,124.45 L77.968,114 L74.756,114 L74.756,115.122 C74.03,114.22 72.974,113.692 71.544,113.692 C68.42,113.692 66.132,116.244 66.132,119.28 C66.132,122.316 68.42,124.868 71.544,124.868 C72.974,124.868 74.03,124.34 74.756,123.438 L74.756,124.45 C74.756,126.012 73.81,126.804 72.27,126.804 C70.818,126.804 70.18,126.188 69.762,125.418 L66.946,127.046 C67.958,128.85 69.872,129.708 72.16,129.708 Z M72.094,121.832 C70.532,121.832 69.432,120.798 69.432,119.28 C69.432,117.762 70.532,116.728 72.094,116.728 C73.656,116.728 74.756,117.762 74.756,119.28 C74.756,120.798 73.656,121.832 72.094,121.832 Z M82.038,113.032 C83.116,113.032 84.018,112.13 84.018,111.052 C84.018,109.974 83.116,109.072 82.038,109.072 C80.96,109.072 80.058,109.974 80.058,111.052 C80.058,112.13 80.96,113.032 82.038,113.032 Z M83.688,125 L83.688,114 L80.388,114 L80.388,125 L83.688,125 Z M91.388,125.308 C94.622,125.308 97.218,122.778 97.218,119.5 C97.218,116.222 94.622,113.692 91.388,113.692 C88.154,113.692 85.558,116.222 85.558,119.5 C85.558,122.778 88.154,125.308 91.388,125.308 Z M91.388,122.096 C89.958,122.096 88.858,121.062 88.858,119.5 C88.858,117.938 89.958,116.904 91.388,116.904 C92.818,116.904 93.918,117.938 93.918,119.5 C93.918,121.062 92.818,122.096 91.388,122.096 Z" id="DiMaggio" fill-rule="nonzero"></path>
            </g>
        </g>
    </g>
</svg>